<svg width="32" height="32" viewBox="0 0 32 32" fill="none" xmlns="http://www.w3.org/2000/svg">
  <circle cx="16" cy="16" r="16" fill="#0b1426"/>
  <path d="M16 8C14.9391 8 13.9217 8.42143 13.1716 9.17157C12.4214 9.92172 12 10.9391 12 12C12 13.0609 12.4214 14.0783 13.1716 14.8284C13.9217 15.5786 14.9391 16 16 16C17.0609 16 18.0783 15.5786 18.8284 14.8284C19.5786 14.0783 20 13.0609 20 12C20 10.9391 19.5786 9.92172 18.8284 9.17157C18.0783 8.42143 17.0609 8 16 8Z" fill="#ff4500"/>
  <path d="M16 18C13.3478 18 10.8043 19.0536 8.92893 20.9289C7.05357 22.8043 6 25.3478 6 28H26C26 25.3478 24.9464 22.8043 23.0711 20.9289C21.1957 19.0536 18.6522 18 16 18Z" fill="#ff4500"/>
  <circle cx="16" cy="12" r="2" fill="#0b1426"/>
  <path d="M10 24H22" stroke="#0b1426" stroke-width="2" stroke-linecap="round"/>
</svg>